REM MD5 b25d7bbf5cb6ab16f8c9ca9bedaf6f51
FILE "Arcana Senki Ludo (Japan).bin" BINARY
  TRACK 01 MODE2/2352
    INDEX 01 00:00:00
  TRACK 02 AUDIO
    INDEX 00 15:22:73
    INDEX 01 15:24:73
  TRACK 03 AUDIO
    INDEX 00 17:15:05
    INDEX 01 17:17:05
REM LEADOUT 20:16:51
